PathFileType	3	(X/Y/Z)	D:\Jess\PFP\Labelled\PA11\20250805\SRRun01.trc
DataRate	CameraRate	NumFrames	NumMarkers	Units	OrigDataRate	OrigDataStartFrame	OrigNumFrames
250.0	250.0	4	33	mm	250.0	36250	2501
Frame#	Time	C7			T10			CLAV			LSHO			RSHO			LASIS			RASIS			LPSIS			RPSIS			LILCR			RILCR			LGTR			LTHI			LLTHI			LLEP			LPSH			LLSH			LDSH			LLMAL			LTOE			L5TH			LHEE			RGTR			RTHI			RLTHI			RLEP			RPSH			RLSH			RDSH			RLMAL			RTOE			R5TH			RHEE			
		X1	Y1	Z1	X2	Y2	Z2	X3	Y3	Z3	X4	Y4	Z4	X5	Y5	Z5	X6	Y6	Z6	X7	Y7	Z7	X8	Y8	Z8	X9	Y9	Z9	X10	Y10	Z10	X11	Y11	Z11	X12	Y12	Z12	X13	Y13	Z13	X14	Y14	Z14	X15	Y15	Z15	X16	Y16	Z16	X17	Y17	Z17	X18	Y18	Z18	X19	Y19	Z19	X20	Y20	Z20	X21	Y21	Z21	X22	Y22	Z22	X23	Y23	Z23	X24	Y24	Z24	X25	Y25	Z25	X26	Y26	Z26	X27	Y27	Z27	X28	Y28	Z28	X29	Y29	Z29	X30	Y30	Z30	X31	Y31	Z31	X32	Y32	Z32	X33	Y33	Z33	

1251	144.996	993.6185495069432	1498.987575950357	-317.2730717132312	887.976634634425	1282.478669596577	-319.7419098834655	1116.029916789773	1372.489636168593	-323.0492177924571	1069.368760305033	1469.203532956066	-466.1583953950791	1059.438127849649	1446.962872858056	-159.48470783031	1082.146487507696	1015.73722653944	-459.2867939562306	1053.695607105657	1021.804181956533	-193.3775746164775	866.2209132358191	1043.340411262986	-377.6985763655879	860.8890639695758	1044.442927325299	-345.3890787745045	1008.522048694976	1087.294791132749	-503.8216362810201	961.9798994294191	1093.068936926553	-167.3178241995688	1023.389565165122	902.4622115504095	-547.962558752472	1176.4766415127	754.9157703902537	-440.1262310835252	1116.070939216422	622.5923719336026	-522.0126268242548	1135.908224649404	515.9568078474647	-513.2588892948575	1154.163430029823	425.9535264439854	-464.253083153393	975.7236553359897	407.8885566258344	-513.8555186908351	924.1583622961822	281.0381667289383	-460.8898583540314	802.5054998000602	275.3755654241675	-483.1003463256956	876.8725190582287	129.3996010032432	-499.8074539846014	826.6860148288654	138.1779746562236	-536.0778531665361	742.9104504950649	296.8853497052593	-420.9801689937589	952.1784953221465	936.1212086533671	-131.1007299747989	1112.271743403812	733.3227468545372	-229.137673688401	1015.572935724417	621.2020022147882	-184.3584229968515	1025.185848907221	472.2020833544249	-217.3149807308333	1046.136089876851	398.3236334162466	-285.3754595606457	921.4373162319833	287.0308882195143	-232.6054851640224	928.592326129823	180.6431391053319	-301.0904254679282	826.960053977495	109.9822585484699	-276.0269381758313	967.7152205568425	61.85631971097978	-274.101685067759	925.2226474681736	41.25203495128846	-233.170762655584	749.5918007555258	81.09763989861855	-331.7330624680688	
1252	145	992.9368731183446	1500.253505723436	-316.789959671657	888.3040841984175	1283.518159494818	-318.3638377135267	1115.904273059655	1375.05272653298	-324.0754884314069	1067.298830718685	1471.49459751106	-466.5009565757501	1060.655955271177	1449.297930102126	-159.8720940525822	1081.868602341917	1017.745671443882	-459.7455004124498	1054.760055195159	1021.994420894057	-194.1927285474713	866.3300996811621	1045.290997257557	-376.6936043365536	861.3213756836067	1046.447735699421	-344.3078486602902	1008.703263349658	1089.315017548506	-503.7643026961323	963.9977451885735	1093.557924790402	-167.2413776672643	1021.940456654476	904.6341150731789	-548.5968709545705	1177.462373427938	758.4504617815741	-440.1803076217162	1120.172975966519	626.2026591133217	-521.8880216609089	1140.793222140872	519.3825419814748	-512.512999745111	1160.210340670747	429.5095594603002	-463.1359255326845	982.5335773015083	406.7097486261218	-513.3815110383343	933.7457705908348	278.8216294277872	-459.9677769621053	812.275786341201	269.8531783157096	-482.5126555142284	891.0248470302556	126.4132006481744	-499.247594399752	840.7376472189937	133.6809277835982	-535.6669199613699	751.7654865628751	289.5399922762501	-420.5229685652739	952.6759619597566	936.6739620143428	-130.9528739366896	1108.346297895845	731.7501328076776	-230.6362435769414	1008.928488626123	621.3463655981045	-184.7297789172854	1016.401642882449	471.962644215099	-217.386991225015	1037.255162862637	397.7714258289367	-286.0363027248032	912.455783810287	287.2216946182731	-233.0474683983244	919.0688008576661	180.8061050566297	-301.376605291667	817.0938954562212	110.5594793438088	-276.0282366176239	957.7250101078242	61.78374760387189	-274.2475703706247	915.1570424131185	41.39062394113301	-233.3241124750618	739.6495954679028	81.85166416839756	-331.6687439139499	
1253	145.004	992.2257274570294	1501.622864958055	-316.3379603254803	888.6983724502417	1284.634745973429	-316.9594056962483	1115.768163659584	1377.799859899284	-325.0834898600888	1065.185389158346	1473.910625334998	-466.857982941294	1061.815812081425	1451.826265306039	-160.2802282826721	1081.643824754674	1019.790946637724	-460.1402598253542	1055.949035166832	1022.14665940112	-195.048682370449	866.524343163441	1047.325465588704	-375.6623146198499	861.8720994056928	1048.57065203612	-343.1923162998055	1008.969585092393	1091.383122125693	-503.6934325694028	966.3799223780743	1094.065150196125	-167.1496529464065	1020.584296722478	906.9672102933249	-549.2549800099102	1178.313584519198	762.0984832083543	-440.3239373305025	1124.031943866642	629.9731712486669	-521.695875553385	1145.342430500562	522.999814116816	-511.7088846853591	1166.070935128272	433.2442294372529	-462.0266687887642	989.2343829580432	405.5289348228974	-512.8543057673852	943.4339775623926	276.590973784883	-459.0118284609221	822.2256512629547	264.1855664173802	-481.8674049420907	905.3985040422339	123.4751252365882	-498.6478561137259	855.0349912579601	129.1793800159247	-535.195775530468	760.8760164189111	281.9520326944655	-419.9919318336316	953.2540814052297	937.2728968550229	-130.8118684652292	1104.378028852476	730.4179279654485	-232.2298318633957	1002.208218881943	621.7141777983458	-185.1623791134209	1007.650406107025	472.0475543604255	-217.6083335327492	1028.266825845352	397.5514064117574	-286.845380105176	903.4450460848803	287.6816340264207	-233.4978365902807	909.5527172786315	181.1530652076544	-301.7061215796305	807.2765929012802	111.2618055348988	-276.0287288301438	947.7534590684228	61.72293083590642	-274.420297699504	905.1017497855023	41.57218329975779	-233.5042555025176	729.7542007145795	82.78027381477685	-331.5938099834766	
1254	145.008	991.4959933182281	1503.087413052431	-315.913411918232	889.1556561784547	1285.825681642073	-315.5300426635999	1115.622190018633	1380.704008291438	-326.0690166865272	1063.041089334451	1476.428817881249	-467.219254564608	1062.92813229677	1454.522544481441	-160.7105722056166	1081.472269875673	1021.871672294927	-460.4732647069299	1057.246124491912	1022.27310938907	-195.9380525825533	866.8055074914907	1049.44552897113	-374.6177341739599	862.541062549464	1050.805180656924	-342.057858239321	1009.285911134032	1093.502560902964	-503.6114639378717	969.0972754026192	1094.605686232765	-167.0418644171465	1019.343736571058	909.4641652708907	-549.9309552727765	1179.0315405914	765.8425759035257	-440.5494026150683	1127.624776943286	633.8700377263376	-521.4327379564954	1149.545007232104	526.7701815900315	-510.8538512169888	1171.730774697112	437.1326511043742	-460.9271234936735	995.8225941031551	404.3467368581414	-512.2735225950236	953.2176458859414	274.357998590695	-458.0275195507238	832.3608635447364	258.3957072886238	-481.1645253601427	919.9821072037702	120.613024026656	-498.0129206217521	869.5719103548552	124.7052772521921	-534.6708582725205	770.2546788995526	274.1445859885239	-419.3850138487757	953.8994260028057	937.9237739431758	-130.6915800347365	1100.381428939465	729.3335118482594	-233.9068369287307	995.4606982258304	622.3129997426317	-185.6571898274806	998.949047631168	472.4617658256554	-217.9705522635929	1019.190456629322	397.6672602256381	-287.7694660794373	894.4017886224549	288.4225801616602	-233.9461830716328	900.0568674465226	181.6953215090321	-302.0674109800098	797.5216434930923	112.1021967116071	-276.0222315115075	937.803764447742	61.66783505865092	-274.6176190400602	895.0588281776435	41.79210914675165	-233.7081521601835	719.9177616624547	83.91025637893438	-331.5048479072594	
